<?xml version="1.0" encoding="utf-8"?>
<!-- Generator: Adobe Illustrator 22.1.0, SVG Export Plug-In . SVG Version: 6.00 Build 0)  -->
<svg version="1.1" id="Capa_2" xmlns="http://www.w3.org/2000/svg" xmlns:xlink="http://www.w3.org/1999/xlink" x="0px" y="0px"
	 viewBox="0 0 1280 1024" style="enable-background:new 0 0 1280 1024;" xml:space="preserve">
<style type="text/css">
	.st0{fill:#8FCDFF;}
	.st1{fill:#2196F3;}
	.st2{fill:#304FFE;}
	.st3{fill:#0000B2;}
	.st4{fill:none;}
	.st5{fill:#753ABF;}
</style>
<polygon class="st0" points="264,330.3 282.7,383.3 337,377 297,343 "/>
<polygon class="st1" points="264,330.3 251,332 245.8,347.2 259,368.7 282.7,383.3 "/>
<polygon class="st1" points="312.3,379.9 337,459.3 337,377 "/>
<polygon class="st2" points="282.7,383.3 332.3,444.4 312.3,379.9 "/>
<polygon class="st0" points="337,377 391.7,462 337,459.3 "/>
<polygon class="st3" points="337,459.3 353.3,493.7 370.1,460.9 "/>
<polygon class="st0" points="370.1,460.9 386.7,535 386.7,578.7 353.1,492.6 "/>
<polygon class="st1" points="386.7,535 419,558.7 391.7,462 370.1,460.9 "/>
<polygon class="st2" points="386.7,578.7 442.3,575.1 386.7,534.7 "/>
<polygon class="st0" points="386.7,579 405.7,610 407.6,577.6 "/>
<polygon class="st2" points="442.3,575.3 433.3,622 405.7,610 407.6,577.6 "/>
<polygon class="st0" points="442.3,575.3 459,570 492.3,624.7 438.8,593.8 "/>
<polygon class="st1" points="433.3,622 472.7,626.7 478.5,616.7 438.8,593.8 "/>
<polygon class="st2" points="459,570 472.1,591.5 487.7,478 "/>
<polygon class="st2" points="478.5,616.7 472.7,626.7 532.7,650 "/>
<polygon class="st1" points="479.4,538.3 530,567.3 532.7,650 492.3,624.7 472.1,591.5 "/>
<polygon class="st0" points="530.9,594.1 532.7,650 590.5,650 "/>
<polygon class="st0" points="479.4,538.3 530,567.3 565,444.4 487.7,478 "/>
<polygon class="st1" points="565,444.4 593.5,410.7 561.5,401.5 487.7,478 "/>
<polygon class="st2" points="487.7,478 519,419.5 544.1,419.5 "/>
<polygon class="st2" points="530,567.3 623,554.5 643.6,546.8 625.5,421.5 593.5,410.7 565,444.4 "/>
<polygon class="st0" points="530,567.3 530.9,594.1 590.5,650 596.2,609.1 614.2,556.1 "/>
<polygon class="st4" points="625.5,423 741,474.5 685.5,534.7 655,542.5 "/>
<polygon class="st4" points="741,474.5 741,414.5 677.1,402 677,444.4 "/>
<polygon class="st4" points="741,474.5 780,464.5 741,414.5 "/>
<path class="st4" d="M677,444.4l-2-67.4L677,444.4z"/>
<polygon class="st4" points="593.5,410.7 675,377 677,444.4 625.5,421.5 "/>
<polygon class="st3" points="519,419.5 544.1,419.5 561.5,401.5 565,377 "/>
<polygon class="st0" points="565,377 561.5,401.5 593.5,410.7 676.3,377.3 637.5,349 "/>
<polygon class="st1" points="643.6,546 646.3,560.8 639.3,586 622.5,597.1 641.7,605 596.2,609.1 614.2,556.1 "/>
<polygon class="st1" points="596.2,609.1 630,650 590.5,650 "/>
<polygon class="st0" points="630,650 655,640 596.2,609.1 "/>
<polygon class="st2" points="596.2,609.1 655,640 657.5,620 641.7,605 "/>
<polygon class="st1" points="685.5,534.7 725.5,563 741,602.2 706.6,584 "/>
<polygon class="st3" points="706.6,584 731,631 760.5,637 741,602.2 "/>
<polygon class="st2" points="725.5,563 685.5,534.7 741,474.5 "/>
<polygon class="st1" points="741,474.5 780,464.5 750,549 729.1,542.5 "/>
<polygon class="st0" points="729.1,542.5 725.5,563 741,602.2 760.5,637 750,549 "/>
<polygon class="st2" points="780,464.5 767.5,570 752.5,570 750,549 "/>
<polygon class="st3" points="767.5,570 752.5,570 760.5,637 767.5,613.2 "/>
<polygon class="st2" points="760.5,637 795.5,638.9 789,616.7 767.5,613.2 "/>
<polygon class="st1" points="789,616.7 803.5,610 812.5,624.7 795.5,638.9 "/>
<polygon class="st0" points="767.5,613.2 789,616.7 803.5,610 767.5,601 "/>
<polygon class="st1" points="767.5,601 785.5,605.5 767.5,585.5 "/>
<polygon class="st2" points="676.3,401.9 675,333.5 691,312.5 760.5,390.5 741,414.5 "/>
<polygon class="st0" points="676.3,377.3 637.5,349 675,333.5 "/>
<polygon class="st1" points="760.5,390.5 780,464.5 741,414.5 "/>
<polygon class="st0" points="760.5,390.5 793,363.5 780,310 709.7,333.5 "/>
<polygon class="st1" points="793,363.5 804.5,451.7 766.1,385.9 "/>
<polygon class="st2" points="780,464.5 804.5,451.7 766.1,385.9 760.5,390.5 "/>
<polygon class="st1" points="691,312.5 677,272.5 737.9,324.1 709.7,333.5 "/>
<polygon class="st2" points="677,272.5 729.1,256.5 717.8,307 "/>
<polygon class="st2" points="717.8,307 773.5,245 773.5,279.5 "/>
<polygon class="st2" points="773.5,279.5 780,310 737.9,324.1 717.8,307 "/>
<polygon class="st1" points="729.1,256.5 757,221 780,226 773.5,245 717.8,307 "/>
<polygon class="st3" points="770.5,544.8 788.2,482.7 804.5,451.7 780,464.5 "/>
<polygon class="st1" points="677,272.5 689.5,219 729.1,256.5 "/>
<polygon class="st3" points="689.5,219 655,248.5 677,272.5 "/>
<polygon class="st0" points="729.1,256.5 712.2,241.3 757,221 "/>
<polygon class="st2" points="712.2,241.3 721.5,184.5 757,221 "/>
<polygon class="st0" points="760.5,197.5 788.5,189.5 793,205.2 780,226 "/>
<polygon class="st2" points="757,221 760.5,197.5 780,226 "/>
<polygon class="st1" points="760.5,197.5 760.5,181.5 773.5,178 788.5,189.5 "/>
<polygon class="st0" points="721.5,184.5 760.5,181.5 760.5,197.5 757,221 "/>
<polygon class="st2" points="721.5,184.5 703,194.5 692.1,193.9 689.5,219 712.2,241.3 "/>
<polygon class="st0" points="689.5,219 680,228.6 661.5,201.2 677,193 692.1,193.9 "/>
<polygon class="st2" points="680,228.6 655,248.5 642,226 661.5,201.2 "/>
<polygon class="st2" points="642,226 622.7,194.5 677,193 661.5,201.2 "/>
<polygon class="st1" points="677,193 698.5,178 721.5,184.5 703,194.5 "/>
<polygon class="st2" points="698.5,178 721.5,184.5 760.5,181.5 729.1,171 "/>
<path class="st1" d="M806,452"/>
<path class="st1" d="M796.1,515.1"/>
<path class="st5" d="M885.3,403.5"/>
<polygon class="st0" points="625.5,421.5 643.6,546.8 685.5,534.7 741,474.5 "/>
<polygon class="st1" points="676.3,401.9 677,445.1 741,474.5 741,414.5 "/>
<polygon class="st1" points="676.3,377.3 677,445.1 625.5,421.5 593.5,410.7 "/>
<polygon class="st0" points="741,414.5 741,474.5 780,464.5 "/>
<polyline class="st0" points="822,397 854.3,397.3 842.9,400.6 801.9,431.9 797.3,396.7 "/>
<polygon class="st3" points="823.6,430.8 845.3,428.3 841.4,437.1 827.5,441.8 804.5,451.7 801.9,431.9 "/>
<polygon class="st1" points="823.6,430.8 845.3,428.3 870.7,426.4 842.9,400.6 801.9,431.9 "/>
<polygon class="st2" points="842.9,400.6 855.4,397 870.7,426.4 "/>
<polygon class="st0" points="870.7,426.4 870.7,416.3 870.7,405 855.4,397 "/>
<polygon class="st3" points="880.1,418.5 870.7,405 870.7,426.4 882.7,435.2 "/>
<polygon class="st0" points="882.7,435.2 873.3,455 856.8,479.3 850.4,466 "/>
<polygon class="st3" points="856.8,479.3 844.9,482.3 825.6,479.7 827.4,462.4 830.8,453.6 850.4,465.6 "/>
<polygon class="st2" points="843.8,431.8 882.7,435.2 870.7,426.4 845.3,428.3 "/>
<polygon class="st2" points="830.8,453.7 850.4,465.7 843.8,431.8 837,444.2 "/>
<polygon class="st1" points="843.8,431.8 850.4,466 882.7,435.2 "/>
</svg>
